<svg width="230" height="226" viewBox="0 0 230 226" fill="none" xmlns="http://www.w3.org/2000/svg">
<g clip-path="url(#clip0_379_906)">
<path d="M167.518 41.9915C167.49 50.765 166.895 59.5276 165.739 68.2248C165.698 68.5302 165.654 68.8356 165.613 69.141H83.3739C83.1307 68.8393 82.8913 68.5339 82.6593 68.2248C81.8858 67.2018 81.1603 66.1494 80.4936 65.0601C77.2891 59.8127 75.8011 53.6564 77.2339 49.3952L77.2596 49.329C77.5689 48.3959 78.0595 47.533 78.7035 46.7899C82.0036 43.0365 88.7219 43.6216 94.8324 46.6023C89.3334 40.6557 84.9392 33.1379 84.5709 26.4075C84.2099 19.8428 87.6205 15.1326 91.3259 11.1253C91.4475 10.9928 91.5691 10.864 91.6906 10.7352C91.7496 10.669 91.8122 10.6064 91.871 10.5402C94.7624 7.48598 98.1363 4.47222 103.046 4.8071C108.431 5.17508 114.424 9.64604 118.637 14.8714C122.851 20.093 125.665 26.0359 128.516 31.8352C131.37 37.6309 134.457 43.5738 139.013 48.5158C132.836 40.7992 127.842 32.0082 125.967 23.4416C124.092 14.875 125.654 6.62861 131.098 2.55875C132.75 1.36098 134.666 0.576143 136.685 0.26991C136.921 0.229432 137.16 0.196315 137.403 0.166876C142.46 -0.436593 148.512 1.27818 153.676 5.42899C159.363 9.9993 163.326 16.7996 165.315 23.265C167.304 29.7304 167.547 35.964 167.518 41.9915Z" fill="#D1D1D1"/>
<path d="M113.864 69.141H112.291C111.79 68.8319 111.287 68.5265 110.781 68.2248C110.468 68.0297 110.151 67.8421 109.834 67.6507C104.6 64.4971 99.3346 61.4736 94.0369 58.58C88.7441 55.684 83.4254 52.9229 78.081 50.2968C77.9394 50.2361 77.8235 50.1278 77.7535 49.9907C77.6836 49.8535 77.6639 49.6962 77.6979 49.5461C77.7035 49.5264 77.7123 49.5078 77.7238 49.4909C77.7974 49.3511 77.9632 49.2922 78.2063 49.4099C78.8619 49.7338 79.5212 50.0576 80.1767 50.3888C85.536 53.0603 90.873 55.8667 96.1879 58.8081C101.499 61.7483 106.781 64.8197 112.033 68.0224C112.144 68.0886 112.254 68.1585 112.365 68.2248C112.866 68.5302 113.363 68.8356 113.864 69.141Z" fill="white"/>
<path d="M134.14 69.1412H133.167C132.946 68.8358 132.729 68.5304 132.508 68.225C127.315 61.0346 122.122 53.8443 116.931 46.654C108.43 34.8823 99.932 23.1106 91.4361 11.3389C91.3858 11.2756 91.3482 11.2031 91.3255 11.1255C91.2519 10.8642 91.4435 10.7097 91.6902 10.7355C91.7943 10.7497 91.8941 10.786 91.983 10.8418C92.0719 10.8976 92.1479 10.9718 92.2058 11.0593C96.9719 17.6608 101.737 24.2599 106.501 30.8566C114.957 42.5694 123.413 54.281 131.867 65.9913C132.405 66.7347 132.943 67.4817 133.48 68.225C133.701 68.5304 133.922 68.8358 134.14 69.1412Z" fill="white"/>
<path d="M155.772 63.3786C155.731 65.0161 155.632 66.6278 155.499 68.2249C155.473 68.5303 155.448 68.8357 155.422 69.1411H154.402C154.431 68.8357 154.461 68.5303 154.486 68.2249C154.689 65.9176 154.829 63.5846 154.836 61.1891C154.826 54.5477 154.141 47.9244 152.792 41.4212C151.357 34.4189 149.315 27.5547 146.689 20.9063C143.932 13.8943 140.618 7.11403 136.777 0.630608C136.705 0.524989 136.673 0.397279 136.685 0.269989C136.726 -0.0207155 137.112 -0.10903 137.403 0.166955C137.461 0.221101 137.511 0.283035 137.551 0.350945C138.026 1.15682 138.492 1.96515 138.95 2.77593C142.651 9.29624 145.825 16.1009 148.442 23.1252C150.935 29.7962 152.842 36.6716 154.14 43.6732C155.356 50.1688 155.903 56.7717 155.772 63.3786Z" fill="white"/>
<path d="M226.785 68.2249H3.21169C2.36012 68.2256 1.54365 68.564 0.941504 69.1656C0.339362 69.7672 0.000748021 70.5829 0 71.4336V222.791C0.000747047 223.642 0.339361 224.458 0.941504 225.059C1.54365 225.661 2.36012 225.999 3.21169 226H226.785C227.249 226 227.708 225.899 228.129 225.705C228.551 225.511 228.925 225.227 229.227 224.874C229.252 224.846 229.276 224.817 229.297 224.786C229.488 224.551 229.644 224.29 229.757 224.009C229.919 223.623 230.001 223.209 230 222.791V71.4337C229.999 70.5823 229.66 69.7661 229.057 69.1644C228.454 68.5628 227.637 68.2248 226.785 68.2249ZM229.083 222.791C229.083 223.239 228.951 223.677 228.703 224.05C228.483 224.378 228.185 224.646 227.834 224.83C227.51 224.997 227.15 225.084 226.785 225.084H3.21169C2.60333 225.083 2.0201 224.841 1.58993 224.411C1.15975 223.982 0.917762 223.399 0.917023 222.791V71.4337C0.917757 70.8259 1.15975 70.2432 1.58993 69.8134C2.0201 69.3836 2.60333 69.1419 3.21169 69.1411H226.785C227.393 69.141 227.978 69.3824 228.409 69.8123C228.839 70.2421 229.082 70.8253 229.083 71.4337V222.791Z" fill="#3F3D56"/>
<path d="M229.54 81.0854H0.458008V82.0028H229.54V81.0854Z" fill="#3F3D56"/>
<path d="M8.2623 77.8566C9.78357 77.8566 11.0168 76.6245 11.0168 75.1047C11.0168 73.5849 9.78357 72.3528 8.2623 72.3528C6.74104 72.3528 5.50781 73.5849 5.50781 75.1047C5.50781 76.6245 6.74104 77.8566 8.2623 77.8566Z" fill="#3F3D56"/>
<path d="M16.1812 77.8566C17.7025 77.8566 18.9357 76.6245 18.9357 75.1047C18.9357 73.5849 17.7025 72.3528 16.1812 72.3528C14.66 72.3528 13.4268 73.5849 13.4268 75.1047C13.4268 76.6245 14.66 77.8566 16.1812 77.8566Z" fill="#3F3D56"/>
<path d="M24.1002 77.8566C25.6215 77.8566 26.8547 76.6245 26.8547 75.1047C26.8547 73.5849 25.6215 72.3528 24.1002 72.3528C22.5789 72.3528 21.3457 73.5849 21.3457 75.1047C21.3457 76.6245 22.5789 77.8566 24.1002 77.8566Z" fill="#3F3D56"/>
<path d="M102.018 159.068C99.2629 157.276 97.8926 153.113 98.5676 149.305C99.2426 145.497 101.785 142.217 104.832 140.803C106.314 140.135 107.939 139.846 109.561 139.961C111.183 140.077 112.751 140.593 114.124 141.463C116.918 143.17 120.871 144.105 122.198 147.521C123.217 150.145 121.924 155.475 120.551 158.025C119.365 160.228 117.111 161.236 114.993 161.674C112.65 162.152 110.231 162.121 107.901 161.584C105.571 161.047 103.384 160.016 101.487 158.561L102.018 159.068Z" fill="#2F2E41"/>
<path d="M100.581 179.292L98.378 183.086L98.087 183.587L97.6635 184.323H91.1699L91.6082 183.587L92.7427 181.677L95.3872 177.217L98.3817 178.413L100.581 179.292Z" fill="#FFB8B8"/>
<path d="M90.6839 184.323L89.4979 183.587L89.3506 183.495L96.7944 169.942C97.1146 169.355 97.5479 168.838 98.0695 168.42C98.5911 168.002 99.1905 167.691 99.8331 167.506C100.644 167.265 101.504 167.233 102.33 167.414C102.813 167.516 103.277 167.689 103.708 167.929C103.885 168.026 104.056 168.134 104.22 168.253C104.849 168.694 105.367 169.276 105.73 169.953C106.163 170.745 106.376 171.638 106.349 172.541C106.322 173.443 106.055 174.321 105.575 175.086L102.706 179.668L100.253 183.587L99.7926 184.323H90.6839Z" fill="#2F2E41"/>
<path d="M109.808 163.878C114.804 163.878 118.855 159.832 118.855 154.84C118.855 149.849 114.804 145.802 109.808 145.802C104.812 145.802 100.762 149.849 100.762 154.84C100.762 159.832 104.812 163.878 109.808 163.878Z" fill="#FFB8B8"/>
<path d="M118.89 184.322H98.5546L98.6467 184.061C98.595 183.903 98.5471 183.745 98.503 183.586C98.4551 183.421 98.4145 183.252 98.3778 183.086C98.0473 181.546 98.0486 179.953 98.3814 178.413C99.5049 172.9 103.987 168.422 103.987 168.422C104.065 168.363 104.142 168.308 104.219 168.253C104.886 167.765 105.61 167.36 106.374 167.046C109.704 165.666 113.195 166.222 115.542 166.935C116.359 167.182 117.157 167.486 117.932 167.844C118.205 167.973 118.352 168.054 118.352 168.054L118.584 175.123L118.864 183.586L118.89 184.322Z" fill="#009688"/>
<path d="M128.297 183.586L126.743 175.69L125.174 167.727C125.108 167.398 124.945 167.096 124.705 166.862C124.465 166.627 124.16 166.471 123.829 166.413L120.544 165.846L117.487 165.32C117.192 165.267 116.888 165.295 116.608 165.402C116.329 165.509 116.083 165.691 115.899 165.927C115.67 166.213 115.544 166.569 115.542 166.935C115.542 167.162 115.588 167.386 115.678 167.594C117.273 171.311 117.303 177.195 116.897 183.586C116.879 183.829 116.864 184.076 116.846 184.322H128.444L128.297 183.586Z" fill="#2F2E41"/>
<path d="M106.375 167.046C106.307 166.778 106.174 166.531 105.987 166.328C105.8 166.124 105.566 165.97 105.304 165.88C105.043 165.789 104.764 165.765 104.491 165.809C104.218 165.853 103.96 165.965 103.741 166.133L102.33 167.414L96.5551 172.669C96.3751 172.83 96.2341 173.03 96.1425 173.254C95.4906 174.81 94.22 177.883 92.7429 181.677C92.5035 182.295 92.2568 182.931 92.0027 183.587C91.9142 183.829 91.8185 184.076 91.7227 184.322H101.24C101.318 184.076 101.395 183.829 101.472 183.587C101.896 182.251 102.308 180.941 102.706 179.668C103.87 175.969 104.92 172.61 105.73 169.953C105.955 169.217 106.16 168.537 106.345 167.914C106.432 167.632 106.442 167.333 106.375 167.046Z" fill="#2F2E41"/>
<path d="M130.433 184.323H131.048L130.963 184.117L130.739 183.587L127.273 175.37L126.742 175.69L122.484 178.262L124.669 183.587L124.971 184.323H128.444H130.433Z" fill="#FFB8B8"/>
<path d="M126.92 168.853C126.451 167.626 125.525 166.629 124.337 166.068C123.149 165.508 121.79 165.428 120.544 165.846C120.385 165.899 120.229 165.96 120.076 166.03C119.204 166.419 118.46 167.048 117.933 167.844C117.717 168.162 117.541 168.504 117.406 168.864C117.167 169.487 117.054 170.152 117.073 170.82C117.093 171.487 117.245 172.145 117.52 172.753L118.585 175.123L122.393 183.587L122.724 184.323H130.433L130.964 184.116L132.341 183.587L132.533 183.513L126.92 168.853Z" fill="#2F2E41"/>
<path d="M116.914 144.46C117.229 144.554 117.567 144.542 117.874 144.426C118.182 144.309 118.443 144.094 118.616 143.815C118.78 143.53 118.877 143.211 118.898 142.883C118.92 142.555 118.866 142.226 118.741 141.922C118.484 141.315 118.079 140.782 117.564 140.371C116.978 139.842 116.265 139.473 115.495 139.301C115.11 139.218 114.711 139.219 114.327 139.304C113.942 139.388 113.58 139.554 113.265 139.791C112.956 140.035 112.727 140.366 112.607 140.741C112.488 141.116 112.483 141.518 112.593 141.896C112.827 142.575 113.462 143.03 114.095 143.368C115.352 144.039 116.739 144.432 118.161 144.523L116.914 144.46Z" fill="#2F2E41"/>
<path d="M118.673 154.57C117.219 154.77 117.405 154.031 116.823 152.684C116.24 151.338 115.461 149.74 113.999 149.603C112.801 149.492 111.814 150.448 110.843 151.159C109.114 152.425 106.782 153.045 104.777 152.285C102.772 151.526 101.379 149.138 102.14 147.135C102.376 146.582 102.724 146.083 103.162 145.67C103.6 145.257 104.117 144.938 104.683 144.733C105.819 144.329 107.025 144.162 108.228 144.241C110.902 144.326 113.526 144.997 115.912 146.206C117.56 147.042 119.163 148.238 119.788 149.976C120.413 151.713 120.824 154.154 119.037 154.624L118.673 154.57Z" fill="#2F2E41"/>
<path d="M116.17 139.682C115.451 138.432 116.045 136.716 117.221 135.881C118.397 135.046 119.975 134.964 121.379 135.299C122.767 135.648 124.039 136.356 125.067 137.351C126.095 138.347 126.843 139.595 127.235 140.97C127.831 143.156 127.477 145.504 127.981 147.713C128.25 148.891 128.757 150.001 129.472 150.975C130.187 151.95 131.093 152.767 132.136 153.379C133.179 153.99 134.336 154.381 135.536 154.528C136.736 154.676 137.953 154.576 139.113 154.236C140.624 153.793 142.159 152.715 142.308 151.149C142.464 152.947 142.054 154.75 141.134 156.304C140.214 157.857 138.831 159.085 137.178 159.814C135.231 160.626 133.06 160.679 130.951 160.625C129.577 160.589 128.172 160.507 126.904 159.976C126.027 159.576 125.239 159.005 124.585 158.297C123.932 157.59 123.426 156.758 123.098 155.853C122.453 154.032 122.279 152.079 122.592 150.173C122.799 148.691 123.212 147.238 123.327 145.745C123.443 144.253 123.224 142.66 122.303 141.479C121.382 140.298 119.623 139.695 118.314 140.423C117.787 140.715 117.363 141.193 116.791 141.382C116.22 141.57 115.409 141.239 115.461 140.64L116.17 139.682Z" fill="#2F2E41"/>
<path d="M177.902 184.323L177.972 183.587L180.05 161.994C180.731 161.461 181.462 160.996 182.234 160.606C186.51 158.454 190.635 159.484 192.867 160.374C193.459 160.606 194.031 160.885 194.576 161.21L195.792 183.587L195.832 184.323H177.902Z" fill="#009688"/>
<path d="M187.631 156.247C192.628 156.247 196.678 152.2 196.678 147.209C196.678 142.217 192.628 138.171 187.631 138.171C182.635 138.171 178.585 142.217 178.585 147.209C178.585 152.2 182.635 156.247 187.631 156.247Z" fill="#FFB8B8"/>
<path d="M194.971 152.719C195.644 152.011 196.09 151.12 196.254 150.157C196.417 149.195 196.291 148.206 195.89 147.316C195.49 146.426 194.833 145.675 194.004 145.158C193.175 144.642 192.211 144.384 191.235 144.416C189.984 144.458 188.805 144.97 187.611 145.345C185.802 145.96 183.871 146.134 181.981 145.851C180.08 145.556 178.364 144.544 177.187 143.023C176.068 141.486 175.719 139.355 176.509 137.626C177.422 135.63 179.554 134.531 181.56 133.637C182.369 133.233 183.233 132.949 184.125 132.795C184.571 132.721 185.029 132.74 185.468 132.851C185.907 132.961 186.318 133.161 186.676 133.438C187.24 133.922 187.57 134.65 188.183 135.07C188.874 135.543 189.771 135.53 190.604 135.613C192.479 135.801 194.254 136.555 195.69 137.774C197.127 138.994 198.158 140.621 198.646 142.441C199.134 144.26 199.056 146.184 198.423 147.958C197.789 149.732 196.63 151.271 195.1 152.371L194.971 152.719Z" fill="#2F2E41"/>
<path d="M183.583 164.345L182.235 160.606L182.15 160.373C182.111 160.263 182.046 160.163 181.962 160.081C181.877 159.999 181.776 159.937 181.664 159.901C181.552 159.864 181.434 159.853 181.317 159.869C181.201 159.885 181.089 159.927 180.991 159.992L179.461 161.011C179.461 161.011 169.645 161.011 168.857 166.895C168.846 166.987 168.831 167.09 168.82 167.201C168.82 167.206 168.818 167.211 168.816 167.215C168.717 167.602 166.864 174.755 165.273 183.587C165.229 183.83 165.185 184.076 165.141 184.323H186.47V184.323C187.164 175.451 186.776 167.202 183.583 164.345Z" fill="#2F2E41"/>
<path d="M209.026 183.587C207.863 174.527 206.198 167.201 206.198 167.201C206.183 167.09 206.168 166.987 206.157 166.895C205.373 161.011 195.557 161.011 195.557 161.011L194.027 159.992C193.929 159.927 193.818 159.885 193.701 159.869C193.585 159.854 193.466 159.864 193.354 159.901C193.243 159.938 193.141 160 193.057 160.082C192.972 160.164 192.908 160.264 192.868 160.375L191.435 164.345C188.242 167.202 187.854 175.451 188.548 184.322L188.548 184.323H209.118C209.089 184.076 209.056 183.83 209.026 183.587Z" fill="#2F2E41"/>
<path d="M36.2524 162.958L34.0646 183.587L33.9872 184.323H28.0684C28.1383 184.083 28.2083 183.837 28.282 183.587C29.9616 177.831 32.2489 169.43 32.0019 167.204C31.6153 163.73 34.3225 162.571 34.3225 162.571L34.4919 162.604L36.2524 162.958Z" fill="#009688"/>
<path d="M45.7984 156.59C50.7946 156.59 54.8448 152.544 54.8448 147.552C54.8448 142.561 50.7946 138.514 45.7984 138.514C40.8022 138.514 36.752 142.561 36.752 147.552C36.752 152.544 40.8022 156.59 45.7984 156.59Z" fill="#A0616A"/>
<path d="M57.5082 179.943C57.0521 180.784 56.6783 181.666 56.3923 182.578C56.2855 182.902 56.1824 183.241 56.0866 183.587C56.0166 183.826 55.954 184.072 55.8914 184.322H32.0312C32.0645 184.08 32.0938 183.833 32.1271 183.587C33.3463 173.964 34.3333 164.198 34.4917 162.604C34.5065 162.453 34.5138 162.376 34.5138 162.376C48.8121 154.847 59.2468 164.694 59.2468 164.694C59.2468 164.694 59.2615 164.764 59.2836 164.9C59.5121 166.277 60.6759 174.313 57.5082 179.943Z" fill="#009688"/>
<path d="M56.3929 182.578L54.8018 179.171L55.1884 165.659L59.2842 164.9L59.4279 164.875C61.545 166.104 63.1832 168.013 64.0761 170.291C64.8717 172.279 66.3855 178.255 67.6636 183.587C67.7226 183.833 67.7814 184.08 67.8404 184.323H57.2068L56.8642 183.587L56.3929 182.578Z" fill="#009688"/>
<path d="M70.9449 123.606H18.6355C17.5134 123.607 16.4378 124.053 15.6444 124.846C14.851 125.638 14.4047 126.713 14.4033 127.834V180.095C14.4047 181.216 14.851 182.29 15.6444 183.083C16.4378 183.875 17.5134 184.321 18.6355 184.323H70.9449C72.0671 184.322 73.1431 183.876 73.9366 183.083C74.73 182.291 75.1761 181.216 75.1768 180.095V127.834C75.1761 126.713 74.73 125.638 73.9366 124.845C73.1431 124.052 72.0671 123.607 70.9449 123.606ZM74.4402 180.095C74.4394 181.02 74.0709 181.908 73.4156 182.563C72.7603 183.218 71.8717 183.586 70.9449 183.587H18.6355C17.7088 183.585 16.8206 183.217 16.1653 182.562C15.5101 181.908 15.1414 181.02 15.14 180.095V127.834C15.1414 126.908 15.5101 126.021 16.1653 125.366C16.8206 124.712 17.7088 124.343 18.6355 124.342H70.9449C71.8717 124.343 72.7603 124.711 73.4156 125.366C74.0709 126.02 74.4394 126.908 74.4402 127.834V180.095ZM34.0644 183.587L33.9871 184.323H55.8914C55.954 184.072 56.0166 183.826 56.0865 183.587H34.0644Z" fill="#3F3D56"/>
<path d="M141.152 123.606H88.8425C87.7205 123.607 86.6448 124.053 85.8514 124.846C85.058 125.638 84.6117 126.713 84.6104 127.834V180.095C84.6117 181.216 85.058 182.29 85.8514 183.083C86.6448 183.875 87.7205 184.321 88.8425 184.323H141.152C142.274 184.322 143.35 183.876 144.144 183.083C144.937 182.291 145.383 181.216 145.384 180.095V127.834C145.383 126.713 144.937 125.638 144.144 124.845C143.35 124.052 142.274 123.607 141.152 123.606ZM144.647 180.095C144.646 181.02 144.278 181.908 143.623 182.563C142.967 183.218 142.079 183.586 141.152 183.587H88.8425C87.9159 183.585 87.0276 183.217 86.3724 182.562C85.7171 181.908 85.3484 181.02 85.347 180.095V127.834C85.3484 126.908 85.7171 126.021 86.3724 125.366C87.0276 124.712 87.9159 124.343 88.8425 124.342H141.152C142.079 124.343 142.967 124.711 143.623 125.366C144.278 126.02 144.646 126.908 144.647 127.834V180.095ZM98.5036 183.587C98.5478 183.745 98.5957 183.903 98.6473 184.061L98.5552 184.323H116.846C116.865 184.076 116.879 183.83 116.898 183.587H98.5036Z" fill="#3F3D56"/>
<path d="M211.362 123.606H159.052C157.93 123.607 156.854 124.052 156.061 124.845C155.267 125.638 154.821 126.713 154.82 127.834V180.095C154.821 181.216 155.267 182.291 156.061 183.084C156.854 183.876 157.93 184.322 159.052 184.323H211.362C212.484 184.321 213.559 183.875 214.353 183.083C215.146 182.29 215.592 181.216 215.594 180.095V127.834C215.592 126.713 215.146 125.638 214.353 124.846C213.559 124.053 212.484 123.607 211.362 123.606ZM214.857 180.095C214.856 181.02 214.487 181.908 213.832 182.562C213.177 183.217 212.288 183.585 211.362 183.587H159.052C158.126 183.586 157.237 183.218 156.582 182.563C155.926 181.908 155.558 181.021 155.557 180.095V127.834C155.558 126.908 155.926 126.02 156.582 125.366C157.237 124.711 158.126 124.343 159.052 124.342H211.362C212.288 124.343 213.177 124.712 213.832 125.366C214.487 126.021 214.856 126.908 214.857 127.834V180.095ZM186.526 183.587C186.507 183.83 186.489 184.076 186.47 184.323H202.342C202.371 184.08 202.404 183.833 202.434 183.587H186.526Z" fill="#3F3D56"/>
<path d="M175.772 205.665H54.2249C53.4434 205.665 52.694 205.355 52.1414 204.803C51.5888 204.251 51.2783 203.502 51.2783 202.722C51.2783 201.941 51.5888 201.192 52.1414 200.64C52.694 200.088 53.4434 199.778 54.2249 199.778H175.772C176.553 199.778 177.303 200.088 177.855 200.64C178.408 201.192 178.718 201.941 178.718 202.722C178.718 203.502 178.408 204.251 177.855 204.803C177.303 205.355 176.553 205.665 175.772 205.665Z" fill="#CCCCCC"/>
<path d="M141.702 108.151H88.2952C87.5137 108.151 86.7643 107.84 86.2117 107.288C85.6591 106.736 85.3486 105.988 85.3486 105.207C85.3486 104.426 85.6591 103.677 86.2117 103.125C86.7643 102.573 87.5137 102.263 88.2952 102.263H141.702C142.484 102.263 143.233 102.573 143.786 103.125C144.338 103.677 144.649 104.426 144.649 105.207C144.649 105.988 144.338 106.736 143.786 107.288C143.233 107.84 142.484 108.151 141.702 108.151Z" fill="#009688"/>
<path d="M50.1258 155.427C50.4322 155.728 50.8372 155.91 51.2666 155.937C51.6959 155.965 52.1208 155.836 52.4632 155.576C54.5952 153.997 56.467 152.032 57.5747 149.634C58.844 146.888 58.9856 143.517 57.4552 140.906C56.1615 138.699 53.8772 137.275 51.6004 136.105C50.7164 135.607 49.7642 135.24 48.774 135.017C47.7731 134.796 46.7258 134.965 45.8452 135.489C45.4144 135.759 45.075 136.152 44.8713 136.618C44.6676 137.083 44.609 137.599 44.7032 138.098C43.6096 136.852 42.2089 135.912 40.6399 135.373C39.6519 134.987 38.57 134.909 37.5366 135.148C36.0918 135.558 35.0371 136.84 34.4602 138.226C33.9936 139.279 33.8325 140.443 33.9952 141.583C34.0808 142.151 34.2847 142.694 34.5937 143.178C34.9027 143.662 35.31 144.076 35.7891 144.393C36.9837 145.131 38.5076 145.078 39.8794 144.776C41.2513 144.475 42.5792 143.95 43.9776 143.817C45.3759 143.684 46.9331 144.033 47.7842 145.149C48.3835 145.936 48.5374 146.963 48.6719 147.942L49.3716 153.034C49.4289 153.771 49.6172 154.492 49.9278 155.162C49.9816 155.259 50.0482 155.348 50.1258 155.427Z" fill="#2F2E41"/>
</g>
<defs>
<clipPath id="clip0_379_906">
<rect width="230" height="226" fill="white"/>
</clipPath>
</defs>
</svg>
