<svg width="255" height="255" viewBox="0 0 255 255" fill="none" xmlns="http://www.w3.org/2000/svg">
<circle opacity="0.6" cx="127.5" cy="127.5" r="127.5" fill="white"/>
<g clip-path="url(#clip0_458_986)">
<path d="M217.749 193H142.119C142.052 193 141.988 192.974 141.941 192.927C141.894 192.88 141.868 192.816 141.868 192.75C141.868 192.683 141.894 192.619 141.941 192.572C141.988 192.525 142.052 192.499 142.119 192.499H217.749C217.815 192.499 217.879 192.525 217.926 192.572C217.973 192.619 218 192.683 218 192.75C218 192.816 217.973 192.88 217.926 192.927C217.879 192.974 217.815 193 217.749 193Z" fill="#3F3D56"/>
<path d="M170.53 190.132H167.449L165.984 178.287L170.53 178.287L170.53 190.132Z" fill="#FFB8B8"/>
<path d="M165.249 189.254H171.19V192.983H161.509C161.509 192.493 161.606 192.008 161.794 191.556C161.981 191.104 162.257 190.692 162.604 190.346C162.952 190 163.364 189.725 163.818 189.538C164.272 189.35 164.758 189.254 165.249 189.254Z" fill="#2F2E41"/>
<path d="M192.881 186.653L190.079 187.929L183.809 177.762L187.944 175.879L192.881 186.653Z" fill="#FFB8B8"/>
<path d="M187.712 188.042L193.116 185.582L194.67 188.973L185.864 192.983C185.66 192.538 185.545 192.057 185.528 191.567C185.51 191.078 185.59 190.59 185.761 190.131C185.933 189.672 186.194 189.252 186.528 188.893C186.863 188.535 187.265 188.246 187.712 188.042Z" fill="#2F2E41"/>
<path d="M183.91 150.194C184.205 149.972 184.448 149.689 184.622 149.364C184.795 149.039 184.895 148.68 184.914 148.312C184.933 147.944 184.871 147.577 184.733 147.236C184.594 146.894 184.382 146.588 184.111 146.337L187.732 138.146L183.132 138.923L180.399 146.582C180.006 147.063 179.805 147.671 179.831 148.29C179.858 148.91 180.112 149.498 180.545 149.943C180.978 150.388 181.56 150.659 182.18 150.706C182.8 150.752 183.416 150.57 183.91 150.194Z" fill="#FFB8B8"/>
<path d="M170.333 187.008H167.391C167.105 187.007 166.831 186.899 166.622 186.705C166.413 186.512 166.284 186.247 166.263 185.963L163.15 143.241C163.138 143.077 163.163 142.913 163.221 142.76C163.279 142.606 163.371 142.467 163.489 142.353C163.606 142.238 163.748 142.15 163.903 142.096C164.059 142.042 164.224 142.022 164.388 142.038L182.915 143.839C183.19 143.866 183.447 143.993 183.635 144.196C183.823 144.399 183.93 144.664 183.935 144.94L184.292 163.785C184.294 163.887 184.314 163.988 184.351 164.084L191.332 182.132C191.386 182.271 191.412 182.42 191.407 182.569C191.403 182.719 191.369 182.866 191.307 183.002C191.245 183.138 191.157 183.261 191.047 183.362C190.938 183.464 190.809 183.543 190.668 183.595L187.686 184.69C187.427 184.785 187.142 184.783 186.885 184.683C186.628 184.583 186.416 184.393 186.29 184.148L177.713 167.524C177.667 167.433 177.632 167.337 177.612 167.238L176.147 160.201C176.104 159.997 175.99 159.814 175.825 159.686C175.66 159.559 175.455 159.494 175.246 159.503C175.037 159.512 174.838 159.596 174.686 159.738C174.533 159.88 174.436 160.072 174.412 160.279L171.457 186.009C171.425 186.284 171.293 186.538 171.086 186.722C170.879 186.907 170.611 187.008 170.333 187.008Z" fill="#2F2E41"/>
<path d="M171.799 109.837C175.207 109.837 177.97 107.082 177.97 103.685C177.97 100.287 175.207 97.5326 171.799 97.5326C168.39 97.5326 165.627 100.287 165.627 103.685C165.627 107.082 168.39 109.837 171.799 109.837Z" fill="#FFB8B8"/>
<path d="M164.325 143.488C165.115 144.031 174.015 149.878 184.16 145.227C184.029 144.098 182.763 132.759 183.869 124.399C184.393 120.433 182.809 116.759 179.522 114.318C177.737 112.999 175.632 112.179 173.422 111.941C171.213 111.703 168.98 112.057 166.954 112.965H166.954C166.787 113.04 166.62 113.117 166.451 113.198L164.325 143.488Z" fill="#009688"/>
<path d="M184.257 145.134C184.1 145.134 183.945 145.102 183.802 145.039C183.659 144.976 183.53 144.884 183.424 144.769L182.075 143.3C181.943 143.157 181.851 142.982 181.807 142.793C181.763 142.603 181.769 142.406 181.824 142.22L184.915 131.788L180.211 121.94C180.005 121.507 179.954 121.016 180.068 120.55C180.168 120.142 180.391 119.773 180.705 119.493C181.02 119.212 181.413 119.034 181.832 118.98C182.25 118.927 182.675 119.001 183.051 119.194C183.426 119.386 183.734 119.688 183.934 120.058L190.294 130.345C190.541 130.744 190.686 131.198 190.717 131.667C190.747 132.136 190.661 132.605 190.467 133.032L185.289 144.471C185.212 144.641 185.094 144.789 184.945 144.903C184.796 145.016 184.622 145.091 184.437 145.12C184.377 145.129 184.317 145.134 184.257 145.134Z" fill="#009688"/>
<path opacity="0.2" d="M168.892 143.8H166.427L170.73 123.611L170.979 123.643L170.021 142.73C170.007 143.019 169.882 143.291 169.672 143.49C169.461 143.689 169.182 143.801 168.892 143.8Z" fill="black"/>
<path d="M166.611 148.82C166.853 148.542 167.032 148.215 167.134 147.861C167.236 147.507 167.259 147.135 167.201 146.771C167.143 146.408 167.006 146.061 166.799 145.756C166.593 145.451 166.321 145.194 166.004 145.005L167.841 136.243L163.503 137.956L162.424 146.014C162.14 146.565 162.069 147.202 162.225 147.802C162.38 148.402 162.751 148.925 163.267 149.271C163.783 149.617 164.409 149.762 165.025 149.679C165.641 149.596 166.205 149.29 166.611 148.82Z" fill="#FFB8B8"/>
<path d="M166.362 143.825C166.32 143.825 166.277 143.823 166.235 143.818L163.605 143.527C163.321 143.495 163.06 143.356 162.873 143.14C162.687 142.924 162.59 142.645 162.6 142.36L163.688 116.114C163.722 115.291 164.056 114.508 164.627 113.913C165.199 113.317 165.968 112.949 166.791 112.878C167.615 112.807 168.436 113.038 169.101 113.527C169.766 114.015 170.23 114.729 170.406 115.534L171.106 118.748L171.103 118.771L167.478 142.865C167.438 143.132 167.304 143.376 167.099 143.552C166.894 143.729 166.633 143.826 166.362 143.825Z" fill="#009688"/>
<path d="M176.884 109.109C176.244 109.218 175.717 108.33 175.637 107.705C175.558 107.081 175.786 106.483 175.811 105.862C175.836 105.242 175.542 104.488 174.896 104.304C174.218 104.111 173.59 104.653 172.896 104.587C171.929 104.497 171.444 103.369 171.327 102.456C171.21 101.544 171.118 100.463 170.28 99.9429C169.446 99.4241 168.413 99.8015 167.454 99.8177C165.833 99.845 164.183 98.6126 163.804 97.0919C164 97.1484 164.21 97.1379 164.4 97.062C164.59 96.9862 164.749 96.8493 164.853 96.6731C164.934 96.4851 164.95 96.2756 164.9 96.0773C164.849 95.8789 164.734 95.7028 164.573 95.5764L166.41 96.4734C166.159 95.9639 166.538 95.3836 167.06 95.1906C167.582 94.9977 168.19 95.0843 168.766 95.1735C171.643 95.6191 174.975 95.3995 176.884 97.5864C178.205 99.1011 179.294 101.983 179.145 103.848C178.996 105.713 176.884 109.109 176.884 109.109Z" fill="#2F2E41"/>
<path d="M106.856 178.472H40.7739C40.3076 178.472 39.8605 178.287 39.5308 177.958C39.201 177.629 39.0156 177.184 39.015 176.719L36 64.7601C35.9995 64.5294 36.0447 64.3009 36.1328 64.0876C36.221 63.8743 36.3504 63.6804 36.5137 63.5169C36.677 63.3535 36.871 63.2237 37.0846 63.135C37.2983 63.0463 37.5273 63.0004 37.7587 63H103.84C104.307 63.0005 104.754 63.1854 105.083 63.5141C105.413 63.8428 105.599 64.2885 105.599 64.7534L106.145 85.0357L105.643 85.0491L105.097 64.7601C105.097 64.5952 105.065 64.4318 105.002 64.2792C104.939 64.1267 104.847 63.9879 104.73 63.871C104.614 63.7541 104.475 63.6612 104.322 63.5977C104.17 63.5342 104.006 63.5013 103.84 63.501H37.7587C37.4257 63.5013 37.1063 63.6334 36.8708 63.8682C36.6353 64.103 36.5028 64.4213 36.5024 64.7534L39.5175 176.712C39.517 176.877 39.5491 177.04 39.612 177.193C39.6749 177.345 39.7673 177.484 39.884 177.601C40.0006 177.718 40.1393 177.811 40.292 177.874C40.4447 177.938 40.6084 177.971 40.7739 177.971H106.856C107.189 177.971 107.508 177.839 107.743 177.604C107.979 177.369 108.111 177.051 108.112 176.719L107.525 154.934L108.027 154.92L108.614 176.712C108.615 176.943 108.57 177.171 108.481 177.385C108.393 177.598 108.264 177.792 108.101 177.955C107.937 178.119 107.743 178.248 107.53 178.337C107.316 178.426 107.087 178.472 106.856 178.472Z" fill="#CCCCCC"/>
<path d="M106.955 115.093L106.453 115.107L106.712 124.722L107.214 124.708L106.955 115.093Z" fill="#CCCCCC"/>
<path d="M100.926 168.605H46.1861C45.7884 168.605 45.4071 168.447 45.1259 168.167C44.8446 167.887 44.6865 167.506 44.686 167.11L42.1885 74.3687C42.188 74.1719 42.2264 73.9769 42.3015 73.7949C42.3766 73.6129 42.487 73.4474 42.6263 73.3079C42.7656 73.1684 42.9311 73.0576 43.1133 72.9819C43.2956 72.9062 43.491 72.867 43.6884 72.8666H98.428C98.8257 72.867 99.207 73.0247 99.4882 73.3051C99.7695 73.5854 99.9276 73.9655 99.9281 74.362L100.38 85.0318L99.8784 85.0529L99.4258 74.3725C99.4267 74.2412 99.4016 74.1109 99.3519 73.9893C99.3022 73.8676 99.2289 73.7569 99.1362 73.6636C99.0435 73.5702 98.9332 73.496 98.8117 73.4452C98.6902 73.3944 98.5598 73.368 98.428 73.3675H43.6884C43.424 73.3679 43.1704 73.4727 42.9834 73.6592C42.7964 73.8456 42.6912 74.0984 42.6909 74.362L45.1884 167.103C45.1879 167.234 45.2133 167.364 45.2632 167.485C45.313 167.607 45.3864 167.717 45.4791 167.81C45.5717 167.903 45.6819 167.977 45.8032 168.027C45.9245 168.078 46.0546 168.104 46.1861 168.104H100.926C101.19 168.104 101.444 167.999 101.631 167.813C101.818 167.626 101.923 167.374 101.923 167.11L101.6 154.933L102.102 154.92L102.426 167.103C102.426 167.3 102.388 167.495 102.313 167.677C102.237 167.859 102.127 168.025 101.988 168.164C101.848 168.304 101.683 168.414 101.501 168.49C101.319 168.566 101.123 168.605 100.926 168.605Z" fill="#CCCCCC"/>
<path d="M101.051 115.344L100.549 115.357L100.802 124.876L101.304 124.862L101.051 115.344Z" fill="#CCCCCC"/>
<path d="M115.491 115.351H51.4196C50.9558 115.35 50.511 115.167 50.1816 114.842C49.8523 114.516 49.6652 114.074 49.6609 113.612L48.6558 86.5452C48.6563 86.0804 48.8418 85.6347 49.1715 85.306C49.5012 84.9773 49.9483 84.7924 50.4146 84.7919H114.486C114.95 84.7924 115.395 84.9753 115.724 85.3009C116.053 85.6265 116.241 86.0685 116.245 86.5308L117.25 113.597C117.249 114.062 117.064 114.508 116.734 114.837C116.405 115.165 115.958 115.35 115.491 115.351ZM49.1583 86.532L50.1633 113.597C50.1637 113.929 50.2962 114.248 50.5317 114.482C50.7672 114.717 51.0866 114.849 51.4196 114.85H115.491C115.822 114.849 116.139 114.719 116.374 114.487C116.61 114.255 116.744 113.94 116.747 113.61L115.742 86.5452C115.742 86.2132 115.61 85.8949 115.374 85.6601C115.139 85.4253 114.819 85.2932 114.486 85.2928H50.4146C50.0838 85.2932 49.7665 85.4235 49.5314 85.6554C49.2962 85.8874 49.1622 86.2023 49.1583 86.532Z" fill="#3F3D56"/>
<path d="M127.552 155.177H63.4802C63.0164 155.177 62.5715 154.994 62.2422 154.668C61.9129 154.343 61.7257 153.901 61.7214 153.438L60.7163 126.372C60.7168 125.907 60.9023 125.461 61.232 125.133C61.5618 124.804 62.0088 124.619 62.4751 124.619H126.547C127.011 124.619 127.455 124.802 127.785 125.128C128.114 125.453 128.301 125.895 128.305 126.357L129.311 153.424C129.31 153.889 129.125 154.334 128.795 154.663C128.465 154.992 128.018 155.177 127.552 155.177ZM61.2189 126.359L62.2239 153.424C62.2243 153.756 62.3567 154.074 62.5923 154.309C62.8278 154.544 63.1471 154.676 63.4802 154.676H127.552C127.883 154.676 128.2 154.546 128.435 154.314C128.67 154.082 128.804 153.767 128.808 153.437L127.803 126.372C127.803 126.04 127.67 125.722 127.435 125.487C127.199 125.252 126.88 125.12 126.547 125.119H62.4751C62.1444 125.12 61.827 125.25 61.5919 125.482C61.3568 125.714 61.2228 126.029 61.2189 126.359Z" fill="#3F3D56"/>
<path d="M78.6815 130.505C78.2484 130.505 77.833 130.676 77.5267 130.982C77.2204 131.287 77.0483 131.701 77.0483 132.133C77.0483 132.565 77.2204 132.979 77.5267 133.284C77.833 133.589 78.2484 133.761 78.6815 133.761H111.345C111.779 133.761 112.194 133.589 112.5 133.284C112.807 132.979 112.979 132.565 112.979 132.133C112.979 131.701 112.807 131.287 112.5 130.982C112.194 130.676 111.779 130.505 111.345 130.505H78.6815Z" fill="#009688"/>
<path d="M78.6815 138.27C78.2484 138.27 77.833 138.441 77.5267 138.747C77.2204 139.052 77.0483 139.466 77.0483 139.898C77.0483 140.33 77.2204 140.744 77.5267 141.049C77.833 141.354 78.2484 141.526 78.6815 141.526H111.345C111.779 141.526 112.194 141.354 112.5 141.049C112.807 140.744 112.979 140.33 112.979 139.898C112.979 139.466 112.807 139.052 112.5 138.747C112.194 138.441 111.779 138.27 111.345 138.27H78.6815Z" fill="#009688"/>
<path d="M78.6815 146.035C78.2484 146.035 77.833 146.206 77.5267 146.512C77.2204 146.817 77.0483 147.231 77.0483 147.663C77.0483 148.095 77.2204 148.509 77.5267 148.814C77.833 149.119 78.2484 149.291 78.6815 149.291H111.345C111.779 149.291 112.194 149.119 112.5 148.814C112.807 148.509 112.979 148.095 112.979 147.663C112.979 147.231 112.807 146.817 112.5 146.512C112.194 146.206 111.779 146.035 111.345 146.035H78.6815Z" fill="#009688"/>
<path d="M66.621 90.6782C66.1878 90.6782 65.7724 90.8498 65.4661 91.1551C65.1599 91.4604 64.9878 91.8745 64.9878 92.3064C64.9878 92.7382 65.1599 93.1523 65.4661 93.4576C65.7724 93.7629 66.1878 93.9345 66.621 93.9345H99.2849C99.7181 93.9345 100.133 93.7629 100.44 93.4576C100.746 93.1523 100.918 92.7382 100.918 92.3064C100.918 91.8745 100.746 91.4604 100.44 91.1551C100.133 90.8498 99.7181 90.6782 99.2849 90.6782H66.621Z" fill="#009688"/>
<path d="M66.621 98.4431C66.1878 98.4431 65.7724 98.6147 65.4661 98.92C65.1599 99.2253 64.9878 99.6394 64.9878 100.071C64.9878 100.503 65.1599 100.917 65.4661 101.223C65.7724 101.528 66.1878 101.699 66.621 101.699H99.2849C99.7181 101.699 100.133 101.528 100.44 101.223C100.746 100.917 100.918 100.503 100.918 100.071C100.918 99.6394 100.746 99.2253 100.44 98.92C100.133 98.6147 99.7181 98.4431 99.2849 98.4431H66.621Z" fill="#009688"/>
<path d="M66.621 106.208C66.1878 106.208 65.7724 106.38 65.4661 106.685C65.1599 106.99 64.9878 107.404 64.9878 107.836C64.9878 108.268 65.1599 108.682 65.4661 108.988C65.7724 109.293 66.1878 109.464 66.621 109.464H99.2849C99.7181 109.464 100.133 109.293 100.44 108.988C100.746 108.682 100.918 108.268 100.918 107.836C100.918 107.404 100.746 106.99 100.44 106.685C100.133 106.38 99.7181 106.208 99.2849 106.208H66.621Z" fill="#009688"/>
<path d="M71.2694 70.5144C72.6571 70.5144 73.7821 69.3929 73.7821 68.0096C73.7821 66.6262 72.6571 65.5048 71.2694 65.5048C69.8818 65.5048 68.7568 66.6262 68.7568 68.0096C68.7568 69.3929 69.8818 70.5144 71.2694 70.5144Z" fill="#E6E6E6"/>
</g>
<defs>
<clipPath id="clip0_458_986">
<rect width="182" height="130" fill="white" transform="translate(36 63)"/>
</clipPath>
</defs>
</svg>
