<?xml version="1.0" standalone="no"?>
<!DOCTYPE svg PUBLIC "-//W3C//DTD SVG 20010904//EN"
 "http://www.w3.org/TR/2001/REC-SVG-20010904/DTD/svg10.dtd">
<svg version="1.0" xmlns="http://www.w3.org/2000/svg"
 width="2742.000000pt" height="2742.000000pt" viewBox="0 0 2742.000000 2742.000000"
 preserveAspectRatio="xMidYMid meet">
<metadata>
Created by potrace 1.14, written by Peter Selinger 2001-2017
</metadata>
<g transform="translate(0.000000,2742.000000) scale(0.100000,-0.100000)"
fill="#000000" stroke="none">
<path d="M18959 18276 c-2 -2 -38 -7 -79 -10 -41 -4 -86 -9 -100 -11 -90 -13
-104 -16 -175 -31 -143 -31 -321 -87 -465 -146 -502 -208 -923 -566 -1212
-1028 -221 -355 -360 -761 -394 -1155 -57 -668 121 -1303 511 -1820 100 -132
151 -190 270 -308 421 -415 975 -675 1565 -734 93 -10 452 -10 540 0 152 16
256 35 400 73 110 30 276 86 337 114 24 11 45 20 48 20 15 0 244 120 335 176
127 77 178 126 184 174 5 45 -9 79 -73 170 -29 41 -72 104 -97 140 -25 36 -68
99 -97 140 -29 41 -82 118 -117 170 -36 52 -68 97 -71 100 -3 3 -39 54 -80
114 -41 59 -89 122 -108 138 -47 42 -90 35 -184 -29 -135 -90 -292 -163 -431
-199 -67 -18 -74 -19 -161 -32 -60 -10 -332 -9 -370 1 -11 2 -40 8 -65 11 -83
13 -234 67 -338 122 -56 29 -108 58 -115 64 -6 5 -47 37 -89 70 -183 145 -329
356 -416 601 -17 47 -32 99 -35 115 -3 16 -10 50 -16 75 -24 106 -32 301 -19
449 30 321 171 623 393 844 194 194 444 318 715 355 69 9 331 7 390 -4 196
-36 372 -107 544 -220 92 -61 131 -71 173 -45 25 15 588 798 635 884 24 44 23
103 -4 143 -67 100 -484 315 -780 403 -176 53 -273 72 -478 97 -51 6 -466 14
-471 9z"/>
<path d="M759 18177 c-19 -12 -42 -38 -51 -57 -17 -33 -18 -172 -18 -2475 0
-2303 1 -2442 18 -2475 35 -72 20 -70 648 -70 520 1 563 2 595 19 73 38 69 -8
69 894 l0 807 783 0 c430 0 790 2 799 3 29 5 76 45 95 80 16 29 18 73 18 499
0 456 0 467 -21 495 -11 15 -36 36 -55 45 -32 17 -92 18 -826 18 l-793 0 0
530 0 529 1063 0 c645 0 1073 4 1087 9 30 12 62 46 84 90 15 29 16 82 14 510
l-3 477 -24 34 c-47 65 74 61 -1769 61 l-1679 0 -34 -23z"/>
<path d="M6620 18193 c-40 -13 -62 -29 -82 -62 l-21 -36 -1 -2445 c0 -2694 -5
-2481 63 -2527 l34 -23 571 3 c630 2 601 -1 643 64 17 26 18 154 20 2458 2
2651 5 2488 -55 2532 -58 42 -72 43 -626 42 -292 0 -538 -3 -546 -6z"/>
<path d="M10695 18186 c-39 -17 -73 -55 -83 -92 -5 -16 -8 -238 -7 -494 1
-414 3 -468 18 -497 19 -36 59 -67 101 -77 15 -4 297 -7 626 -7 l598 0 0
-1898 c0 -1730 1 -1900 16 -1929 16 -31 65 -73 100 -86 10 -3 261 -7 556 -7
581 0 566 -2 617 53 12 12 27 37 33 53 9 22 12 517 12 1922 l0 1891 601 1
c331 0 612 3 625 5 38 8 77 42 100 89 22 45 22 48 22 508 -1 454 -1 463 -22
501 -14 24 -37 45 -63 58 -41 20 -61 20 -1931 20 -1552 -1 -1894 -3 -1919 -14z"/>
<path d="M22105 18180 c-21 -23 -15 -58 19 -104 21 -27 78 -126 183 -316 17
-30 48 -84 68 -120 21 -36 49 -85 63 -110 13 -25 71 -126 127 -225 115 -203
145 -257 188 -335 17 -30 50 -88 74 -128 24 -41 43 -75 43 -77 0 -2 24 -45 54
-97 29 -51 64 -113 78 -138 14 -25 73 -128 130 -230 58 -102 116 -205 130
-230 14 -25 120 -211 235 -415 115 -203 222 -392 237 -419 l27 -49 0 -971 c1
-534 4 -988 9 -1010 11 -48 52 -92 95 -100 41 -8 1079 -8 1120 0 42 7 72 29
92 67 16 30 17 106 18 1022 l1 990 89 155 c48 85 99 175 113 200 14 25 42 74
62 110 41 70 40 69 170 300 48 85 97 173 110 195 51 89 504 892 522 925 11 19
28 51 40 70 11 19 130 231 265 470 135 239 259 453 274 474 33 45 37 77 13
101 -14 14 -86 15 -714 13 -682 -3 -698 -3 -720 -23 -12 -11 -48 -74 -80 -140
-80 -166 -148 -310 -178 -375 -13 -30 -43 -93 -65 -140 -55 -118 -263 -562
-297 -635 -15 -33 -65 -139 -110 -235 -45 -96 -99 -211 -119 -254 l-37 -79
-34 74 c-18 41 -69 148 -112 238 -43 90 -78 165 -78 166 0 2 -36 78 -80 170
-44 92 -80 168 -80 170 0 2 -31 67 -69 146 -38 79 -87 182 -109 229 -203 435
-277 589 -298 622 -45 71 -16 68 -772 68 -662 0 -679 -1 -697 -20z"/>
<path d="M711 10919 c-10 -18 -13 -199 -12 -988 1 -892 3 -967 18 -978 12 -9
65 -13 179 -13 134 0 165 3 178 16 14 14 16 67 16 435 l0 419 451 -2 451 -3 0
-415 c-1 -365 1 -417 15 -432 14 -16 36 -18 178 -18 121 0 166 3 180 14 18 13
19 44 20 981 0 915 -1 968 -18 986 -16 17 -33 19 -182 19 -160 0 -165 -1 -179
-22 -12 -19 -15 -80 -15 -343 0 -176 0 -337 0 -357 l-1 -38 -450 0 -450 0 0
364 0 365 -22 15 c-18 13 -54 16 -183 16 -153 0 -161 -1 -174 -21z"/>
<path d="M5629 10918 c-9 -17 -12 -260 -12 -987 0 -922 1 -965 19 -978 14 -10
149 -13 716 -13 696 0 697 0 708 21 17 31 15 301 -1 328 -14 21 -16 21 -529
23 l-515 3 0 235 1 235 386 5 c212 3 389 8 392 11 25 24 30 316 6 344 -11 13
-64 15 -399 15 l-386 0 0 203 0 202 498 5 498 5 17 22 c14 19 17 45 16 146 -1
128 -8 177 -27 189 -7 4 -319 8 -694 8 l-682 0 -12 -22z"/>
<path d="M10612 10923 c-12 -10 -49 -88 -82 -173 -34 -85 -68 -168 -75 -185
-7 -16 -48 -118 -90 -225 -42 -107 -83 -208 -90 -225 -25 -59 -78 -191 -92
-230 -8 -22 -21 -53 -28 -70 -61 -136 -325 -816 -325 -836 0 -15 7 -30 16 -33
9 -3 89 -6 178 -6 146 0 165 2 180 19 9 10 45 92 80 182 l64 164 415 3 415 2
22 -57 c70 -181 113 -279 127 -295 14 -16 35 -18 179 -18 89 0 169 3 178 6 9
3 16 18 16 33 0 22 -42 143 -79 226 -5 11 -16 40 -26 65 -9 25 -22 56 -27 70
-130 322 -200 505 -196 506 2 0 -2 7 -8 15 -7 8 -35 75 -64 149 -28 74 -58
149 -66 165 -7 17 -57 140 -110 275 -52 135 -100 254 -105 265 -5 11 -24 58
-43 104 -53 126 -45 121 -206 121 -117 0 -141 -3 -158 -17z m168 -526 c0 -8
27 -87 61 -178 33 -90 64 -175 69 -189 4 -14 14 -38 20 -55 7 -16 14 -34 16
-40 3 -12 53 -146 83 -225 11 -30 21 -56 21 -57 0 -2 -129 -3 -286 -3 -269 0
-286 1 -279 18 7 15 205 543 258 685 20 53 37 74 37 44z"/>
<path d="M14907 10922 c-16 -17 -17 -100 -17 -986 0 -825 2 -970 14 -982 12
-12 110 -14 630 -14 545 0 616 2 630 16 19 19 18 7 18 177 0 118 -3 141 -18
158 -16 18 -35 19 -450 19 l-434 0 1 796 c0 736 -1 798 -17 815 -15 17 -33 19
-179 19 -144 0 -164 -2 -178 -18z"/>
<path d="M19126 10924 c-18 -17 -18 -26 -17 -198 1 -94 5 -124 17 -137 15 -16
42 -18 282 -19 146 0 268 -3 271 -6 10 -10 6 -249 -4 -256 -7 -5 -7 -11 0 -15
6 -5 10 -73 10 -168 0 -95 -4 -163 -10 -167 -7 -5 -7 -8 0 -8 12 0 13 -239 1
-258 -4 -7 -4 -12 1 -12 10 0 9 -291 -1 -308 -4 -7 -4 -12 1 -12 4 0 8 -74 8
-165 0 -91 -4 -165 -8 -165 -4 0 -2 -10 4 -22 7 -13 10 -24 8 -25 -2 -1 4 -11
13 -23 17 -19 29 -20 179 -20 137 0 163 2 177 17 16 15 17 81 17 812 l0 796
272 5 c240 4 274 7 290 22 14 15 17 39 17 162 0 127 -2 148 -19 166 -18 20
-26 20 -756 20 -657 0 -739 -2 -753 -16z"/>
<path d="M23614 10932 c-6 -4 -15 -16 -21 -27 -5 -12 -9 -388 -8 -976 1 -784
3 -960 14 -973 11 -14 39 -16 182 -16 164 0 169 1 183 23 11 18 14 95 12 435
l-1 412 452 0 453 0 0 -377 c0 -208 0 -397 0 -420 0 -70 8 -73 195 -73 135 0
166 3 179 16 14 14 16 117 16 983 0 925 -1 969 -18 984 -27 24 -332 25 -356 1
-14 -13 -16 -62 -16 -380 l0 -364 -452 0 -453 0 0 366 c0 350 -1 366 -19 380
-15 11 -57 14 -175 14 -86 0 -161 -4 -167 -8z"/>
</g>
</svg>
