<svg width="154" height="102" viewBox="0 0 154 102" fill="none" xmlns="http://www.w3.org/2000/svg">
<path d="M147.98 68.2597C146.868 69.4747 145.489 70.3792 143.993 71.0814H143.991C143.85 71.1482 143.709 71.2132 143.567 71.2746H143.565L143.563 71.2764L143.561 71.2746H143.559C143.559 71.2748 143.559 71.2751 143.559 71.2753C143.559 71.2755 143.559 71.2757 143.559 71.2759C143.559 71.2761 143.558 71.2762 143.558 71.2763C143.558 71.2764 143.558 71.2764 143.558 71.2764H143.556L143.554 71.2746C143.552 71.2764 143.552 71.2764 143.55 71.2746L143.549 71.2764L143.547 71.2746H143.545C143.543 71.2764 143.543 71.2764 143.541 71.2746H143.539C142.538 71.7079 141.509 72.0758 140.46 72.3758C134.29 74.1265 127.805 74.4652 121.486 73.367C121.365 73.3453 121.246 73.3236 121.125 73.302V58.6591C121.244 58.6086 121.365 58.558 121.486 58.5093C122.275 58.1825 123.073 57.8822 123.881 57.6084C125.044 57.2112 126.223 56.8706 127.418 56.5866C131.316 55.6429 135.339 55.3176 139.339 55.6226C140.066 55.6767 140.792 55.755 141.516 55.8573C143.03 56.0685 144.619 56.4368 146.016 57.0758H146.018C146.222 57.1715 146.422 57.2708 146.621 57.3773C147.863 58.0507 148.91 58.9768 149.549 60.246C149.778 60.7018 149.944 61.1872 150.04 61.6884V61.692C150.076 61.8653 150.101 62.0405 150.121 62.2138C150.349 64.3512 149.462 66.6386 147.98 68.2597Z" fill="#F2F2F2"/>
<path d="M150.121 62.215C150.103 62.2194 150.085 62.2218 150.067 62.2222C146.975 62.3576 143.887 62.5586 140.803 62.8252H140.797C140.785 62.827 140.774 62.827 140.761 62.8288C137.595 63.1032 134.436 63.4468 131.283 63.8596C131.149 63.8777 131.017 63.8957 130.885 63.912C128.705 64.2026 126.528 64.5252 124.356 64.8796C123.398 65.0367 122.441 65.2004 121.486 65.3707C121.365 65.3923 121.246 65.4122 121.125 65.4357V64.8886C121.246 64.8652 121.367 64.8453 121.486 64.8237C124.667 64.2604 127.858 63.7688 131.061 63.3487C131.866 63.2404 132.672 63.1381 133.479 63.0418C135.812 62.7602 138.147 62.5171 140.487 62.3125C140.658 62.298 140.828 62.2836 141 62.2691C143.994 62.0146 146.993 61.8214 149.996 61.6896C150.011 61.689 150.026 61.6902 150.04 61.6932C150.329 61.7185 150.39 62.1518 150.121 62.215Z" fill="white"/>
<path d="M143.7 70.7426C139.848 70.771 136.052 69.1374 133.328 66.4335C132.559 65.6676 131.881 64.8152 131.309 63.8934C131.125 63.5988 130.695 63.9237 130.878 64.2157C132.994 67.6098 136.519 70.0276 140.405 70.9166C141.508 71.1667 142.637 71.2875 143.769 71.2766C144.114 71.274 144.043 70.7401 143.7 70.7426V70.7426Z" fill="white"/>
<path d="M127.418 56.5879C127.401 56.6386 127.372 56.6842 127.332 56.72C127.292 56.7558 127.244 56.7806 127.192 56.7919C126.309 57.0232 125.456 57.3564 124.65 57.7848C123.474 58.4064 122.405 59.2142 121.486 60.1768C121.437 60.2256 121.39 60.2743 121.345 60.3249C121.269 60.4043 121.197 60.4855 121.125 60.5686V59.7815C121.241 59.6587 121.361 59.5378 121.486 59.4222C122.212 58.7274 123.016 58.1191 123.881 57.6097C125.044 57.2125 126.223 56.8719 127.418 56.5879Z" fill="white"/>
<path d="M146.336 56.9335C143.885 57.9868 141.835 59.7947 140.483 62.0941C140.456 62.1599 140.455 62.2339 140.482 62.2999C140.509 62.3659 140.561 62.4187 140.626 62.4469C140.692 62.4729 140.766 62.4726 140.831 62.4459C140.897 62.4193 140.95 62.3684 140.979 62.3038C142.269 60.132 144.216 58.4262 146.538 57.4324C146.857 57.2962 146.655 56.7971 146.336 56.9335L146.336 56.9335Z" fill="white"/>
<path d="M153.722 41.6008C153.303 43.1931 152.5 44.6355 151.502 45.9516L151.5 45.9534C151.408 46.0761 151.312 46.2007 151.213 46.3199V46.3217C150.52 47.1756 149.772 47.9831 148.973 48.739C146.102 51.4756 142.858 53.793 139.339 55.6226C133.803 58.5147 127.615 60.2244 121.486 60.3218C121.439 60.3237 121.392 60.3237 121.345 60.3237C121.271 60.3255 121.197 60.3255 121.125 60.3255V52.1203C121.242 51.8965 121.363 51.6726 121.486 51.4506C123.079 48.5845 125.021 45.9273 127.268 43.5397C127.322 43.4801 127.378 43.4205 127.434 43.3628C128.279 42.4709 129.164 41.6218 130.091 40.8155C133.656 37.6808 137.776 35.2407 142.238 33.6213C143.677 33.105 145.254 32.6916 146.789 32.6103C147.014 32.5977 147.238 32.5923 147.464 32.5941C148.877 32.6139 150.233 32.9479 151.39 33.7748C151.804 34.0724 152.176 34.4253 152.495 34.8236C152.607 34.9627 152.71 35.1053 152.809 35.2515V35.2533C154.004 37.0406 154.282 39.4759 153.722 41.6008Z" fill="#F2F2F2"/>
<path d="M152.809 35.2526V35.2544C152.795 35.2661 152.781 35.2763 152.766 35.2851C150.094 36.8395 147.456 38.4504 144.852 40.1179C144.848 40.1197 144.846 40.1215 144.843 40.1233C144.832 40.1306 144.821 40.1372 144.81 40.1432C142.133 41.8582 139.494 43.631 136.893 45.4616C136.785 45.5375 136.675 45.6151 136.564 45.6927C134.768 46.9618 132.991 48.2581 131.232 49.5813C127.911 52.0835 124.662 54.6783 121.486 57.3658C121.365 57.4669 121.246 57.5698 121.125 57.6727V56.9705C121.244 56.8676 121.365 56.7647 121.486 56.6636C122.703 55.6364 123.93 54.6236 125.169 53.6252C125.539 53.3274 125.91 53.0295 126.282 52.7352C129.586 50.1049 132.963 47.5726 136.415 45.1385H136.416C137.095 44.6601 137.775 44.1859 138.456 43.7159C140.391 42.3836 142.348 41.0832 144.327 39.8146C144.469 39.7225 144.614 39.6305 144.758 39.5384C147.291 37.9208 149.856 36.3562 152.455 34.8446C152.468 34.8369 152.481 34.8303 152.495 34.8247C152.766 34.7164 153.02 35.0739 152.809 35.2526Z" fill="white"/>
<path d="M151.085 45.788C147.687 47.6027 143.567 47.9191 139.898 46.7904C138.862 46.4694 137.866 46.0293 136.931 45.479C136.631 45.3034 136.401 45.7907 136.698 45.9647C140.149 47.9873 144.393 48.4909 148.248 47.4727C149.341 47.1815 150.397 46.764 151.394 46.2287C151.699 46.0659 151.387 45.6264 151.085 45.788V45.788Z" fill="white"/>
<path d="M125.66 52.3942C125.492 51.4492 125.434 50.4878 125.488 49.5294C125.609 47.3436 126.279 45.2235 127.434 43.3641C128.28 42.4726 129.166 41.6234 130.092 40.8164C130.1 40.8692 130.095 40.9233 130.077 40.9735C130.058 41.0237 130.027 41.0681 129.986 41.1025C129.312 41.7176 128.712 42.4087 128.197 43.1619C126.357 45.8465 125.64 49.1433 126.196 52.3496C126.205 52.3859 126.205 52.424 126.195 52.4601C126.185 52.4962 126.166 52.5292 126.14 52.5559C126.101 52.5895 126.054 52.6125 126.004 52.6224C125.954 52.6324 125.902 52.629 125.853 52.6127C125.805 52.5963 125.761 52.5676 125.727 52.5292C125.693 52.4909 125.67 52.4444 125.66 52.3942Z" fill="white"/>
<path d="M147.005 32.3353C145.324 34.4064 144.348 36.9599 144.219 39.6242C144.226 39.6952 144.26 39.7608 144.314 39.8068C144.368 39.8529 144.439 39.8756 144.51 39.8701C144.58 39.8626 144.645 39.8282 144.691 39.7741C144.737 39.7199 144.76 39.6503 144.756 39.5795C144.89 37.0569 145.821 34.642 147.416 32.683C147.635 32.4144 147.224 32.0661 147.005 32.3353Z" fill="white"/>
<path d="M128.311 38.2664V38.2682C128.299 38.4234 128.284 38.5769 128.268 38.7303V38.734C128.142 39.8262 127.946 40.9093 127.681 41.9763C127.555 42.4998 127.418 43.0198 127.268 43.5397C127.25 43.6065 127.23 43.6733 127.21 43.7383V43.7401C126.769 45.2522 126.243 46.738 125.632 48.1902C124.51 50.8638 123.121 53.4174 121.486 55.8122C121.369 55.9873 121.248 56.1624 121.125 56.3357V28.0646C121.246 28.0574 121.365 28.0574 121.486 28.061C121.544 28.061 121.602 28.0628 121.659 28.0664C122.169 28.0931 122.672 28.191 123.154 28.357C123.324 28.413 123.488 28.4762 123.65 28.5466C125.62 29.4095 127.167 31.3123 127.838 33.4047C128.342 34.9717 128.443 36.6199 128.311 38.2664Z" fill="#F2F2F2"/>
<path d="M123.65 28.5475C123.646 28.5652 123.639 28.5822 123.631 28.5981C122.899 30.0189 122.185 31.4469 121.486 32.8821C121.365 33.1294 121.244 33.3785 121.125 33.6259V32.3983C121.244 32.1527 121.365 31.9072 121.486 31.6617C122.026 30.5677 122.575 29.4785 123.132 28.3941C123.138 28.3814 123.146 28.3693 123.154 28.358C123.32 28.1197 123.732 28.2822 123.65 28.5475Z" fill="white"/>
<path d="M128.369 38.5574C128.337 38.6151 128.304 38.6729 128.268 38.7307C127.738 39.6545 127.107 40.5167 126.387 41.3014C125.004 42.802 123.339 44.0148 121.486 44.8705C121.367 44.9283 121.246 44.9825 121.125 45.033V44.4463C121.246 44.3921 121.367 44.3362 121.486 44.2784C124.168 42.9992 126.395 40.9322 127.871 38.3534C127.892 38.3165 127.921 38.2847 127.956 38.2601C127.99 38.2354 128.03 38.2185 128.072 38.2104C128.113 38.2024 128.156 38.2034 128.198 38.2134C128.239 38.2234 128.278 38.2422 128.311 38.2685C128.334 38.2837 128.354 38.3032 128.369 38.3259C128.384 38.3486 128.395 38.3741 128.4 38.401C128.405 38.4278 128.405 38.4554 128.4 38.4822C128.395 38.5091 128.384 38.5346 128.369 38.5574Z" fill="white"/>
<path d="M121.486 5.95752V19.6779H121.125V19.5316H0.361029V19.6779H0V5.95752C0.00155033 4.37796 0.629656 2.86355 1.74647 1.74663C2.86328 0.629713 4.37756 0.00155047 5.95698 0H115.529C117.109 0.00155047 118.623 0.629713 119.74 1.74663C120.857 2.86355 121.485 4.37796 121.486 5.95752Z" fill="#009688"/>
<path d="M115.529 0H5.95698C4.37756 0.00155047 2.86328 0.629713 1.74647 1.74663C0.629656 2.86355 0.00155033 4.37796 0 5.95752V84.308C0.00155033 85.8875 0.629656 87.4019 1.74647 88.5189C2.86328 89.6358 4.37756 90.2639 5.95698 90.2655H115.529C117.109 90.2639 118.623 89.6358 119.74 88.5189C120.857 87.4019 121.485 85.8875 121.486 84.308V5.95752C121.485 4.37796 120.857 2.86355 119.74 1.74663C118.623 0.629713 117.109 0.00155047 115.529 0ZM121.125 84.308C121.123 85.7917 120.533 87.2141 119.484 88.2632C118.435 89.3123 117.013 89.9025 115.529 89.9044H5.95698C4.47342 89.9025 3.05117 89.3123 2.00213 88.2632C0.953099 87.2141 0.362922 85.7917 0.361029 84.308V5.95752C0.362922 4.47383 0.953099 3.05145 2.00213 2.00232C3.05117 0.953189 4.47342 0.362955 5.95698 0.361062H115.529C117.013 0.362956 118.435 0.95319 119.484 2.00232C120.533 3.05145 121.123 4.47383 121.125 5.95752V84.308Z" fill="#3F3D56"/>
<path d="M24.5497 13.4498C26.5436 13.4498 28.16 11.8332 28.16 9.83914C28.16 7.84504 26.5436 6.22852 24.5497 6.22852C22.5558 6.22852 20.9395 7.84504 20.9395 9.83914C20.9395 11.8332 22.5558 13.4498 24.5497 13.4498Z" fill="white"/>
<path d="M96.9365 13.4498C98.9304 13.4498 100.547 11.8332 100.547 9.83914C100.547 7.84504 98.9304 6.22852 96.9365 6.22852C94.9426 6.22852 93.3262 7.84504 93.3262 9.83914C93.3262 11.8332 94.9426 13.4498 96.9365 13.4498Z" fill="white"/>
<path d="M34.981 50.0981H13.5041C12.5942 50.097 11.7219 49.7351 11.0786 49.0917C10.4352 48.4482 10.0733 47.5759 10.0723 46.6659V36.5142C10.0733 35.6042 10.4352 34.7319 11.0786 34.0884C11.7219 33.445 12.5942 33.0831 13.5041 33.082H34.981C35.8909 33.0831 36.7632 33.445 37.4066 34.0884C38.0499 34.7319 38.4118 35.6042 38.4129 36.5142V46.6659C38.4118 47.5759 38.0499 48.4482 37.4066 49.0917C36.7632 49.7351 35.8909 50.097 34.981 50.0981Z" fill="#009688"/>
<path d="M71.5167 50.0981H50.0397C49.1299 50.097 48.2576 49.7351 47.6142 49.0917C46.9708 48.4482 46.6089 47.5759 46.6079 46.6659V36.5142C46.6089 35.6042 46.9708 34.7319 47.6142 34.0884C48.2576 33.445 49.1299 33.0831 50.0397 33.082H71.5167C72.4265 33.0831 73.2988 33.445 73.9422 34.0884C74.5856 34.7319 74.9475 35.6042 74.9485 36.5142V46.6659C74.9475 47.5759 74.5856 48.4482 73.9422 49.0917C73.2988 49.7351 72.4265 50.097 71.5167 50.0981Z" fill="#009688"/>
<path d="M71.5167 76.3277H50.0397C49.1023 76.3266 48.2036 75.9537 47.5407 75.2908C46.8778 74.6279 46.505 73.729 46.5039 72.7915V62.6397C46.505 61.7021 46.8778 60.8033 47.5407 60.1404C48.2036 59.4775 49.1023 59.1046 50.0397 59.1035H71.5167C72.4541 59.1046 73.3528 59.4775 74.0157 60.1404C74.6786 60.8033 75.0514 61.7021 75.0525 62.6397V72.7915C75.0514 73.729 74.6786 74.6279 74.0157 75.2908C73.3528 75.9537 72.4541 76.3266 71.5167 76.3277Z" fill="#F2F2F2"/>
<path d="M34.9107 76.3277H13.4338C12.4963 76.3266 11.5976 75.9537 10.9347 75.2908C10.2719 74.6279 9.899 73.729 9.89795 72.7915V62.6397C9.899 61.7021 10.2719 60.8033 10.9347 60.1404C11.5976 59.4775 12.4963 59.1046 13.4338 59.1035H34.9107C35.8481 59.1046 36.7469 59.4775 37.4098 60.1404C38.0726 60.8033 38.4455 61.7021 38.4465 62.6397V72.7915C38.4455 73.729 38.0726 74.6279 37.4098 75.2908C36.7469 75.9537 35.8481 76.3266 34.9107 76.3277Z" fill="#F2F2F2"/>
<path d="M108.053 76.3277H86.5759C85.6384 76.3266 84.7397 75.9537 84.0768 75.2908C83.4139 74.6279 83.0411 73.729 83.04 72.7915V62.6397C83.0411 61.7021 83.4139 60.8033 84.0768 60.1404C84.7397 59.4775 85.6384 59.1046 86.5759 59.1035H108.053C108.99 59.1046 109.889 59.4775 110.552 60.1404C111.215 60.8033 111.588 61.7021 111.589 62.6397V72.7915C111.588 73.729 111.215 74.6279 110.552 75.2908C109.889 75.9537 108.99 76.3266 108.053 76.3277Z" fill="#F2F2F2"/>
<path d="M108.053 50.1187H86.5759C85.6384 50.1176 84.7397 49.7447 84.0768 49.0818C83.4139 48.4189 83.0411 47.5201 83.04 46.5825V36.4307C83.0411 35.4932 83.4139 34.5943 84.0768 33.9314C84.7397 33.2685 85.6384 32.8956 86.5759 32.8945H108.053C108.99 32.8956 109.889 33.2685 110.552 33.9314C111.215 34.5943 111.588 35.4932 111.589 36.4307V46.5825C111.588 47.52 111.215 48.4189 110.552 49.0818C109.889 49.7447 108.99 50.1176 108.053 50.1187Z" fill="#F2F2F2"/>
<path d="M24.2427 47.4141C27.459 47.4141 30.0664 44.8065 30.0664 41.5899C30.0664 38.3732 27.459 35.7656 24.2427 35.7656C21.0263 35.7656 18.4189 38.3732 18.4189 41.5899C18.4189 44.8065 21.0263 47.4141 24.2427 47.4141Z" fill="white"/>
<path d="M23.6652 43.8124C23.5342 43.8126 23.4067 43.7702 23.3018 43.6916L23.2953 43.6868L21.9267 42.6388C21.8632 42.5903 21.8099 42.5297 21.7699 42.4605C21.7298 42.3914 21.7038 42.315 21.6933 42.2358C21.6828 42.1566 21.688 42.0761 21.7086 41.9989C21.7292 41.9217 21.7648 41.8493 21.8134 41.7859C21.862 41.7225 21.9226 41.6692 21.9918 41.6292C22.0609 41.5893 22.1373 41.5633 22.2165 41.5529C22.2958 41.5424 22.3762 41.5477 22.4534 41.5684C22.5306 41.589 22.6029 41.6247 22.6663 41.6734L23.5528 42.3532L25.6477 39.6209C25.6963 39.5575 25.7569 39.5043 25.826 39.4644C25.8952 39.4244 25.9715 39.3985 26.0507 39.388C26.1298 39.3776 26.2103 39.3828 26.2874 39.4035C26.3645 39.4241 26.4369 39.4598 26.5002 39.5084L26.4872 39.526L26.5005 39.5086C26.6284 39.6069 26.712 39.7518 26.7331 39.9116C26.7542 40.0715 26.711 40.2332 26.6131 40.3612L24.149 43.5751C24.092 43.6491 24.0187 43.709 23.9348 43.7502C23.8509 43.7914 23.7587 43.8126 23.6652 43.8124Z" fill="#009688"/>
<path d="M60.8823 47.3302C64.0987 47.3302 66.7061 44.7226 66.7061 41.5059C66.7061 38.2892 64.0987 35.6816 60.8823 35.6816C57.666 35.6816 55.0586 38.2892 55.0586 41.5059C55.0586 44.7226 57.666 47.3302 60.8823 47.3302Z" fill="white"/>
<path d="M60.3049 43.7284C60.1739 43.7286 60.0463 43.6863 59.9415 43.6077L59.935 43.6028L58.5664 42.5548C58.4384 42.4567 58.3545 42.3118 58.3334 42.1519C58.3122 41.992 58.3554 41.8303 58.4535 41.7023C58.5516 41.5743 58.6965 41.4904 58.8564 41.4693C59.0162 41.4481 59.178 41.4913 59.306 41.5894L60.1925 42.2692L62.2874 39.5369C62.336 39.4735 62.3966 39.4204 62.4657 39.3804C62.5348 39.3405 62.6112 39.3145 62.6903 39.3041C62.7695 39.2936 62.8499 39.2989 62.9271 39.3195C63.0042 39.3401 63.0765 39.3758 63.1399 39.4244L63.1269 39.4421L63.1402 39.4246C63.268 39.5229 63.3517 39.6678 63.3728 39.8277C63.3939 39.9875 63.3507 40.1492 63.2528 40.2772L60.7886 43.4911C60.7316 43.5651 60.6584 43.6251 60.5745 43.6662C60.4906 43.7074 60.3983 43.7286 60.3049 43.7284Z" fill="#009688"/>
<path d="M100.242 68.9894C100.433 68.7802 100.576 68.5316 100.661 68.261C100.746 67.9905 100.771 67.7047 100.733 67.4236C100.695 67.1426 100.597 66.8732 100.444 66.6345C100.291 66.3958 100.087 66.1935 99.8479 66.0418L96.5967 48.6797L92.6426 50.1461L97.0818 66.7514C96.8538 67.1708 96.7875 67.6592 96.8955 68.1242C97.0036 68.5891 97.2784 68.9983 97.6679 69.2742C98.0575 69.5501 98.5346 69.6734 99.009 69.6209C99.4835 69.5685 99.9221 69.3438 100.242 68.9894Z" fill="#A0616A"/>
<path d="M68.6909 42.4979C68.7007 42.6057 68.7021 42.7141 68.6949 42.8222L76.383 48.7399L78.5632 47.8445L80.3443 50.9585L76.6387 52.9187C76.3394 53.0771 75.9967 53.134 75.6622 53.081C75.3277 53.0281 75.0195 52.868 74.7837 52.6249L67.099 44.7015C66.6922 44.7933 66.2671 44.759 65.8803 44.6032C65.4935 44.4475 65.1632 44.1777 64.9335 43.8296C64.7038 43.4816 64.5854 43.0718 64.5942 42.6549C64.603 42.238 64.7385 41.8336 64.9827 41.4955C65.2269 41.1575 65.5682 40.9018 65.9613 40.7625C66.3543 40.6232 66.7805 40.6069 67.183 40.7157C67.5856 40.8245 67.9455 41.0533 68.2148 41.3717C68.4842 41.69 68.6502 42.0829 68.6909 42.4979H68.6909Z" fill="#A0616A"/>
<path d="M86.6521 99.8059H84.4392L83.3862 93.0742L86.6526 93.0744L86.6521 99.8059Z" fill="#A0616A"/>
<path d="M87.2164 101.952L80.0806 101.952V101.862C80.0806 101.497 80.1524 101.136 80.292 100.799C80.4316 100.462 80.6361 100.155 80.8941 99.8975C81.152 99.6396 81.4582 99.435 81.7951 99.2954C82.1321 99.1558 82.4933 99.084 82.858 99.084H82.8582L87.2165 99.0842L87.2164 101.952Z" fill="#2F2E41"/>
<path d="M94.9558 99.8059H92.7429L91.6899 93.0742L94.9564 93.0744L94.9558 99.8059Z" fill="#A0616A"/>
<path d="M95.5201 101.952L88.3843 101.952V101.862C88.3843 101.497 88.4561 101.136 88.5957 100.799C88.7353 100.462 88.9399 100.155 89.1978 99.8975C89.4557 99.6396 89.7619 99.435 90.0989 99.2954C90.4358 99.1558 90.797 99.084 91.1618 99.084H91.1619L95.5202 99.0842L95.5201 101.952Z" fill="#2F2E41"/>
<path d="M83.9795 98.4751C83.7774 98.4753 83.5826 98.4 83.4332 98.264C83.2838 98.128 83.1905 97.9411 83.1717 97.7399L81.2432 71.7995L81.3343 71.7921L94.6059 70.7012L94.6095 70.7955L95.6645 97.6676C95.6686 97.7768 95.6506 97.8857 95.6117 97.9877C95.5727 98.0898 95.5136 98.1829 95.4378 98.2616C95.362 98.3403 95.2711 98.4029 95.1706 98.4456C95.0701 98.4883 94.9619 98.5104 94.8527 98.5103H92.2505C92.0562 98.5113 91.8681 98.4421 91.7207 98.3156C91.5732 98.1891 91.4763 98.0137 91.4477 97.8215L87.9139 76.1136C87.9104 76.0912 87.8986 76.0709 87.8809 76.0567C87.8632 76.0426 87.8408 76.0357 87.8181 76.0373C87.7955 76.0389 87.7743 76.049 87.7588 76.0656C87.7433 76.0821 87.7346 76.1039 87.7344 76.1266L87.5741 97.5599C87.5725 97.7669 87.4919 97.9655 87.3489 98.1152C87.2059 98.2648 87.0113 98.3543 86.8046 98.3654L84.0231 98.4738C84.0085 98.4747 83.9939 98.4751 83.9795 98.4751Z" fill="#2F2E41"/>
<path d="M86.2447 39.0165C88.6933 39.0165 90.6783 37.0313 90.6783 34.5825C90.6783 32.1336 88.6933 30.1484 86.2447 30.1484C83.796 30.1484 81.811 32.1336 81.811 34.5825C81.811 37.0313 83.796 39.0165 86.2447 39.0165Z" fill="#A0616A"/>
<path d="M87.103 73.4549C85.1651 73.4491 83.2367 73.1855 81.3683 72.6711C81.1885 72.6187 81.0323 72.506 80.9259 72.3519C80.8195 72.1978 80.7694 72.0117 80.7842 71.825C81.3811 62.8538 81.5214 55.8919 80.2663 51.075C79.7314 49.022 79.9742 46.8597 80.9326 45.1427C82.3749 42.5588 85.0259 40.9861 87.8536 41.0404C87.9887 41.043 88.1252 41.0478 88.263 41.0549C92.5543 41.2759 95.8982 45.1584 95.7172 49.7099L94.854 71.404C94.8509 71.5623 94.8009 71.7161 94.7105 71.846C94.62 71.9759 94.4931 72.0762 94.3458 72.1341C92.0303 73.0052 89.5769 73.4527 87.103 73.4549Z" fill="#3F3D56"/>
<path d="M80.9957 52.7413L77.6747 48.6714C77.5802 48.5555 77.5118 48.4207 77.4741 48.2761C77.4364 48.1315 77.4303 47.9804 77.4562 47.8332C77.4822 47.686 77.5395 47.5461 77.6244 47.4231C77.7092 47.3001 77.8196 47.1968 77.948 47.1203L82.4467 44.4394C83.0419 43.9591 83.8032 43.7345 84.5637 43.8148C85.3242 43.8951 86.0218 44.2737 86.5036 44.8677C86.9853 45.4616 87.2119 46.2224 87.1336 46.9832C87.0553 47.744 86.6785 48.4427 86.0859 48.926L82.57 52.7845C82.4693 52.895 82.346 52.9824 82.2084 53.0409C82.0709 53.0994 81.9223 53.1275 81.773 53.1234C81.6236 53.1193 81.4768 53.0831 81.3427 53.0171C81.2085 52.9512 81.0902 52.8571 80.9957 52.7413Z" fill="#3F3D56"/>
<path d="M91.4432 52.23C91.3067 52.169 91.1851 52.0792 91.0865 51.9668C90.9879 51.8545 90.9148 51.7222 90.872 51.579L89.377 46.5773C89.0524 45.8847 89.0158 45.0917 89.2751 44.3721C89.5344 43.6525 90.0685 43.0652 90.7602 42.7389C91.4519 42.4126 92.2448 42.374 92.965 42.6316C93.6851 42.8891 94.2737 43.4218 94.6017 44.1128L97.4929 48.4795C97.5754 48.6042 97.63 48.7451 97.6532 48.8928C97.6763 49.0405 97.6673 49.1914 97.6269 49.3353C97.5864 49.4792 97.5154 49.6126 97.4187 49.7266C97.3221 49.8406 97.2019 49.9324 97.0666 49.9958L92.3093 52.2228C92.1739 52.2862 92.0265 52.3197 91.877 52.321C91.7275 52.3222 91.5795 52.2912 91.4432 52.23Z" fill="#3F3D56"/>
<path d="M88.4355 38.2219L85.1491 37.4696C84.8101 37.392 84.4028 37.2439 84.3558 36.8993C84.2926 36.4362 84.959 36.1136 84.8975 35.6503C84.838 35.2016 84.231 35.1437 83.7981 35.0113C83.395 34.8698 83.0627 34.5771 82.8716 34.195C82.6805 33.8129 82.6456 33.3714 82.7742 32.964C82.3059 33.624 81.2359 33.6805 80.6285 33.1458C80.0211 32.6111 79.9046 31.6409 80.2693 30.9185C80.4664 30.5636 80.7444 30.2603 81.0808 30.0332C81.4172 29.806 81.8024 29.6615 82.2052 29.6113C83.015 29.5195 83.8337 29.6721 84.556 30.0496C84.6042 29.5381 85.2427 29.3307 85.7565 29.3262C86.8236 29.3386 87.8603 29.6834 88.7223 30.3127C89.5843 30.9419 90.2288 31.8242 90.5659 32.8368C91.1963 34.8682 90.7746 37.0949 89.0109 38.2834L88.4355 38.2219Z" fill="#2F2E41"/>
<path d="M121.538 102H52.7621C52.7142 102 52.6683 101.981 52.6344 101.947C52.6006 101.913 52.5815 101.867 52.5815 101.819C52.5815 101.771 52.6006 101.725 52.6344 101.692C52.6683 101.658 52.7142 101.639 52.7621 101.639H121.538C121.586 101.639 121.632 101.658 121.666 101.692C121.7 101.725 121.719 101.771 121.719 101.819C121.719 101.867 121.7 101.913 121.666 101.947C121.632 101.981 121.586 102 121.538 102Z" fill="#3F3D56"/>
</svg>
