<svg width="18" height="18" viewBox="0 0 18 18" fill="none" xmlns="http://www.w3.org/2000/svg">
<path d="M9.21764 15.6726L9.5727 16.6075L9.5727 16.6075L9.21764 15.6726ZM8.78236 15.6726L8.4273 16.6075L8.4273 16.6075L8.78236 15.6726ZM3.75 3.25H14.25V1.25H3.75V3.25ZM14 3V7.62364H16V3H14ZM4 7.62364V3H2V7.62364H4ZM14 7.62364C14 12.472 9.89131 14.3471 8.86259 14.7378L9.5727 16.6075C10.6975 16.1803 16 13.8475 16 7.62364H14ZM2 7.62364C2 13.8475 7.30254 16.1803 8.4273 16.6075L9.13741 14.7378C8.10869 14.3471 4 12.472 4 7.62364H2ZM8.86259 14.7378C8.90119 14.7231 8.94815 14.7133 9 14.7133C9.05185 14.7133 9.09881 14.7231 9.13741 14.7378L8.4273 16.6075C8.7987 16.7485 9.2013 16.7485 9.5727 16.6075L8.86259 14.7378ZM14.25 3.25C14.1119 3.25 14 3.13807 14 3H16C16 2.0335 15.2165 1.25 14.25 1.25V3.25ZM3.75 1.25C2.7835 1.25 2 2.0335 2 3H4C4 3.13807 3.88807 3.25 3.75 3.25V1.25Z" fill="#3F51B5"/>
<path d="M11.9571 7.45711C12.3476 7.06658 12.3476 6.43342 11.9571 6.04289C11.5666 5.65237 10.9334 5.65237 10.5429 6.04289L11.9571 7.45711ZM8.25 9.75L7.54289 10.4571C7.93342 10.8476 8.56658 10.8476 8.95711 10.4571L8.25 9.75ZM7.45711 7.54289C7.06658 7.15237 6.43342 7.15237 6.04289 7.54289C5.65237 7.93342 5.65237 8.56658 6.04289 8.95711L7.45711 7.54289ZM10.5429 6.04289L7.54289 9.04289L8.95711 10.4571L11.9571 7.45711L10.5429 6.04289ZM8.95711 9.04289L7.45711 7.54289L6.04289 8.95711L7.54289 10.4571L8.95711 9.04289Z" fill="#3F51B5"/>
</svg>
