<svg width="18" height="17" viewBox="0 0 18 17" fill="none" xmlns="http://www.w3.org/2000/svg">
<path d="M11.2398 5.35587L9.34058 1.23844C9.20655 0.947863 8.79357 0.947864 8.65954 1.23844L6.76035 5.35587C6.70572 5.4743 6.59349 5.55584 6.46398 5.5712L1.96119 6.10508C1.64341 6.14275 1.51579 6.53552 1.75073 6.75279L5.07976 9.83138C5.17551 9.91993 5.21838 10.0519 5.19297 10.1798L4.30927 14.6272C4.24691 14.941 4.58102 15.1838 4.86025 15.0275L8.81689 12.8127C8.9307 12.749 9.06942 12.749 9.18322 12.8127L13.1399 15.0275C13.4191 15.1838 13.7532 14.941 13.6908 14.6272L12.8072 10.1798C12.7817 10.0519 12.8246 9.91993 12.9204 9.83138L16.2494 6.75279C16.4843 6.53552 16.3567 6.14275 16.0389 6.10508L11.5361 5.5712C11.4066 5.55584 11.2944 5.4743 11.2398 5.35587Z" stroke="#FF9800" stroke-width="2" stroke-linecap="round" stroke-linejoin="round"/>
</svg>
