<svg width="182" height="130" viewBox="0 0 182 130" fill="none" xmlns="http://www.w3.org/2000/svg">
<g clip-path="url(#clip0_1166_3875)">
<path d="M166.186 116.947C167.782 119.774 166.429 129.321 166.429 129.321C166.429 129.321 157.565 125.562 155.969 122.736C155.204 121.379 155.009 119.773 155.425 118.272C155.842 116.77 156.837 115.496 158.191 114.729C159.545 113.961 161.147 113.764 162.647 114.18C164.146 114.596 165.419 115.591 166.186 116.947V116.947Z" fill="#F1F1F1"/>
<path d="M166.557 129.307L166.369 129.347C164.555 120.715 158.222 114.861 158.158 114.803L158.288 114.66C158.352 114.719 164.731 120.612 166.557 129.307Z" fill="white"/>
<path d="M180.69 120.164C178.524 124.101 166.312 129.433 166.312 129.433C166.312 129.433 164.298 116.241 166.463 112.306C167.503 110.416 169.25 109.017 171.32 108.418C173.389 107.818 175.612 108.067 177.498 109.109C179.385 110.151 180.781 111.901 181.379 113.975C181.978 116.048 181.73 118.274 180.69 120.164Z" fill="#F1F1F1"/>
<path d="M166.42 129.577L166.236 129.384C175.073 120.976 177.361 109.25 177.383 109.133L177.645 109.182C177.622 109.3 175.321 121.109 166.42 129.577Z" fill="white"/>
<path d="M42.7888 90.3587C41.3913 90.354 39.9998 90.1737 38.647 89.822L38.3804 89.7481L38.1331 89.6239C29.1912 85.1326 21.6474 79.2001 15.7112 71.9913C10.7973 65.9888 6.96619 59.1737 4.39015 51.8524C1.30962 43.0869 -0.172424 33.8379 0.0147823 24.5469C0.0185597 24.3519 0.0217567 24.2013 0.0217567 24.0975C0.0217567 19.5811 2.52421 15.6183 6.39703 14.0017C9.3611 12.7645 36.2734 1.69062 38.2179 0.890502C41.8799 -0.947689 45.7866 0.586571 46.4118 0.854871C47.8141 1.42924 72.6929 11.6233 78.0692 14.1879C83.61 16.8312 85.0883 21.5796 85.0883 23.9686C85.0883 34.7845 83.2185 44.8928 79.5308 54.0127C76.5525 61.3947 72.3314 68.2096 67.0514 74.1607C56.8641 85.6456 46.6741 89.7171 46.5757 89.753C45.3579 90.1728 44.0766 90.3777 42.7888 90.3587ZM40.3925 84.4121C41.2759 84.6106 43.3099 84.9082 44.6356 84.4237C46.3197 83.8084 54.8486 79.3778 62.8185 70.3926C73.8303 57.9783 79.4176 42.3724 79.4258 24.0085C79.4062 23.6365 79.1424 20.9829 75.6347 19.3097C70.3626 16.7946 44.5033 6.20174 44.2427 6.09498L44.1712 6.06464C43.6293 5.83714 41.9046 5.35794 40.7158 5.98205L40.4777 6.09322C40.1895 6.21182 11.6217 17.9663 8.57496 19.2381C6.44366 20.1277 5.68428 22.3316 5.68428 24.0976C5.68428 24.2266 5.68095 24.4143 5.67624 24.6569C5.43274 37.2222 8.3352 68.1415 40.3925 84.4121Z" fill="#3F3D56"/>
<path d="M39.4015 3.47014C39.4015 3.47014 10.5741 15.3313 7.48543 16.6205C4.39677 17.9098 2.85245 21.004 2.85245 24.0982C2.85245 27.1924 0.535967 67.5676 39.4015 87.089C39.4015 87.089 42.9289 88.0667 45.6051 87.089C48.2814 86.1112 82.2565 69.6088 82.2565 23.9693C82.2565 23.9693 82.2565 19.3279 76.8514 16.7494C71.4462 14.1709 45.3133 3.47014 45.3133 3.47014C45.3133 3.47014 42.1041 2.05197 39.4015 3.47014Z" fill="#009688"/>
<path opacity="0.1" d="M42.4902 12.752V76.0268C42.4902 76.0268 13.4054 62.0014 13.6628 25.1288L42.4902 12.752Z" fill="black"/>
<path d="M42.8695 58.2285L33.6045 46.2943L38.9925 42.0962L43.3794 47.7468L58.1993 32.0742L63.1551 36.778L42.8695 58.2285Z" fill="white"/>
<path d="M181.778 130H97.1187C97.0598 130 97.0032 129.976 96.9616 129.935C96.9199 129.893 96.8965 129.836 96.8965 129.777C96.8965 129.718 96.9199 129.662 96.9616 129.62C97.0032 129.578 97.0598 129.555 97.1187 129.555H181.778C181.837 129.555 181.894 129.578 181.935 129.62C181.977 129.662 182 129.718 182 129.777C182 129.836 181.977 129.893 181.935 129.935C181.894 129.976 181.837 130 181.778 130Z" fill="#CACACA"/>
<path d="M121.591 126.492L125.027 126.492L126.662 113.213L121.59 113.213L121.591 126.492Z" fill="#FFB8B8"/>
<path d="M120.714 125.367L127.482 125.367H127.482C128.626 125.367 129.723 125.822 130.532 126.633C131.34 127.443 131.795 128.542 131.795 129.688V129.828L120.714 129.829L120.714 125.367Z" fill="#2F2E41"/>
<path d="M133.145 126.492L136.582 126.492L138.217 113.213L133.145 113.213L133.145 126.492Z" fill="#FFB8B8"/>
<path d="M132.269 125.367L139.036 125.367H139.037C140.18 125.367 141.277 125.822 142.086 126.633C142.895 127.443 143.349 128.542 143.35 129.688V129.828L132.269 129.829L132.269 125.367Z" fill="#2F2E41"/>
<path d="M126.992 79.8585L127.817 121.986L121.148 121.572L116.522 94.7389L115.061 76.4434L126.992 79.8585Z" fill="#2F2E41"/>
<path d="M138.436 72.7846L139.371 122.654L131.594 122.432L129.914 92.7874L126.992 82.0542L115.061 76.4437L117.009 63.0271L134.54 62.7832L138.436 72.7846Z" fill="#2F2E41"/>
<path d="M125.028 28.1439C128.322 28.1439 130.992 25.4691 130.992 22.1696C130.992 18.8701 128.322 16.1953 125.028 16.1953C121.734 16.1953 119.064 18.8701 119.064 22.1696C119.064 25.4691 121.734 28.1439 125.028 28.1439Z" fill="#FFB8B8"/>
<path d="M129.975 30.6602L130.888 32.0465L133.323 38.8766L131.375 65.4657L119.93 65.7098L118.47 35.2175L121.53 31.3852L129.975 30.6602Z" fill="#CCCCCC"/>
<path d="M113.843 35.951L111.895 35.707C111.895 35.707 111.408 35.951 111.165 37.6585C110.921 39.3661 107.999 54.4902 107.999 54.4902L111.895 73.0294L116.278 67.1749L113.6 56.9296L116.278 46.6842L113.843 35.951Z" fill="#2F2E41"/>
<path d="M138.68 35.707H140.141L143.793 55.4657L140.384 70.8337L136.975 65.2233L137.949 59.1248L137.462 53.7583L135.758 50.5869L138.68 35.707Z" fill="#2F2E41"/>
<path d="M128.552 22.1691L127.468 21.8975C127.468 21.8975 126.655 17.281 124.757 17.8241C122.86 18.3673 117.98 18.9104 117.98 16.7379C117.98 14.5654 122.589 12.6645 125.299 12.9361C128.01 13.2077 131.472 14.1085 132.347 18.0957C133.75 24.4873 129.453 26.1017 129.453 26.1017L129.524 25.869C129.723 25.2228 129.737 24.5339 129.565 23.8801C129.393 23.2263 129.043 22.6336 128.552 22.1691Z" fill="#2F2E41"/>
<path d="M112.139 35.7056L119.931 32.5344L121.757 31.1928L127.236 55.4645L129.792 30.4609L139.898 35.7056L136.489 52.2933L136.002 58.6357L137.463 63.7583C137.463 63.7583 142.576 67.4174 140.872 71.3204C139.167 75.2234 137.219 75.4673 137.219 75.4673C137.219 75.4673 128.94 67.6613 128.453 65.7098C127.966 63.7583 127.236 60.3432 127.236 60.3432C127.236 60.3432 123.096 75.9552 118.226 75.7112C113.356 75.4673 113.356 70.3446 113.356 70.3446L114.574 64.978L116.522 59.3675L115.548 50.0979L112.139 35.7056Z" fill="#2F2E41"/>
</g>
<defs>
<clipPath id="clip0_1166_3875">
<rect width="182" height="130" fill="white"/>
</clipPath>
</defs>
</svg>
